<svg xmlns="http://www.w3.org/2000/svg" viewBox="0 0 24 24" fill="none" stroke="#999999" stroke-width="1.6" stroke-linecap="round" stroke-linejoin="round">
  <!-- 左花括号 { -->
  <path d="M 6,3 C 2,3 0.5,5.5 0.5,8.5 C 0.5,10.5 2,11 3,11.5 C 2,12 0.5,12.5 0.5,14.5 C 0.5,17.5 2,20 6,20"/>
  <!-- 放大镜圆圈 -->
  <circle cx="10" cy="11.5" r="4"/>
  <!-- 放大镜手柄 -->
  <line x1="12.8" y1="14.3" x2="14" y2="15.8"/>
  <!-- 终端光标 _ -->
  <line x1="13" y1="17" x2="15.5" y2="17" stroke-width="1.8"/>
  <!-- 右花括号 } -->
  <path d="M 18,3 C 22,3 23.5,5.5 23.5,8.5 C 23.5,10.5 22,11 21,11.5 C 22,12 23.5,12.5 23.5,14.5 C 23.5,17.5 22,20 18,20"/>
</svg>
